<?xml version="1.0" encoding="UTF-8"?><svg id="Layer_1" xmlns="http://www.w3.org/2000/svg" viewBox="0 0 200 200"><defs><style>.cls-1{fill:#005dff;}.cls-2{fill:#fff;}</style></defs><circle class="cls-1" cx="100" cy="100" r="100"/><g><path class="cls-2" d="M68.14,139.64c-10.97,3.33-19.69,3.24-22.23-.24-2.55-3.5,.06-11.88,6.64-21.35,2.63-3.78,5.86-7.75,9.58-11.78l-7.06-5.21c-3.74,4.1-7.01,8.14-9.69,12.01-11.89,17.11-10.11,26.56-6.52,31.48,3.06,4.2,8.2,6.33,15.28,6.33,4.73,0,10.34-.98,16.69-2.92,1.66-.51,3.52-1.15,5.65-1.95l-8.34-6.37Z"/><path class="cls-2" d="M161.12,55.38c-6.47-8.87-22.84-8.28-44.95,1.57l2.65,8.32c4.51-2.04,8.84-3.71,12.88-4.95,5.34-1.63,10.22-2.49,14.12-2.49,4.1,0,6.95,.93,8.24,2.7,2.55,3.49-.06,11.88-6.64,21.35-4.97,7.15-12.01,14.88-20.37,22.34-2.18,1.95-4.43,3.86-6.68,5.7l-.28,.23,8.82,27.15-22.96-16.68-.3,.21c-2.46,1.65-4.92,3.24-7.33,4.7-5.96,3.63-11.87,6.77-17.6,9.33l8.43-25.96-23.79-17.28h29.4l9.09-27.96,9.09,27.96h20.18c3.83-3.77,7.7-9.19,7.7-9.19h-21.21l-7.64-23.51h-16.24l-7.64,23.51h-24.72l-5.02,15.45,20,14.53-7.64,23.51,11.04,8.02,.27-.12c7.53-3.22,15.35-7.37,23.26-12.35l19.85,14.43,13.14-9.55-7.68-23.65c20.48-17.82,40.67-43.43,30.53-57.32Z"/></g></svg>