<svg id="图层_1" data-name="图层 1" xmlns="http://www.w3.org/2000/svg" xmlns:xlink="http://www.w3.org/1999/xlink" viewBox="0 0 512 512"><defs><style>.cls-1{fill:#fff;}.cls-2{fill:url(#未命名的渐变_2);}</style><linearGradient id="未命名的渐变_2" x1="7" y1="316.59" x2="492" y2="316.59" gradientTransform="matrix(1, 0, 0, -1, 0, 512.27)" gradientUnits="userSpaceOnUse"><stop offset="0" stop-color="#2357eb"/><stop offset="1" stop-color="#011e80"/></linearGradient></defs><title>coin-1</title><circle class="cls-1" cx="587" cy="758" r="250"/><path class="cls-2" d="M91.27,374.06A154,154,0,0,1,63,373.49a75.9,75.9,0,0,1-17.32-4.19,42.74,42.74,0,0,1-7.73-3.82,29.59,29.59,0,0,1-4.64-3.78,36.24,36.24,0,0,1-9-15.83,55.77,55.77,0,0,1-.24-25.44C27.63,303,35.89,285.84,45.7,269.87a401.7,401.7,0,0,1,33.56-46q10.5-12.63,21.73-24.73L86.2,188.59l-1-.74C64.3,209.84,45,233.6,29.64,260.4a222.69,222.69,0,0,0-13.38,27.37,128,128,0,0,0-8.35,30.05,70.82,70.82,0,0,0,2.31,32.46,48.5,48.5,0,0,0,8.11,14.89,47.91,47.91,0,0,0,5.81,6.19,43.17,43.17,0,0,0,7.07,5.07c10,5.48,20.6,7.21,30.78,7.72a151.68,151.68,0,0,0,30.1-1.85c17.72-2.78,34.88-8.39,51.42-14.78l.77-2.69c-5.13,1.55-12.95,3.67-17.54,4.56A275,275,0,0,1,91.27,374.06ZM205.41,105.84c6.87-4.9,13.91-9.64,21-14.25l2.7-8.19L233.58,70q-18.87,10.95-37,23.18c-16.33,11.07-32.16,23.08-47.34,35.63q-17.43,14.31-34.16,29.54l26.88-.22a621.21,621.21,0,0,1,63.42-52.3ZM380.18,169.3H294c-5.55-18.54-10.48-34.73-16.16-53.21-5.89-19.32-12-38.64-18-57.85L254.65,42l-5.44,16.21L239.56,87l-9.49,28.76L212.55,168.9l-56.11.17-30.29.14-30.29.29-17.16.17,13.91,9.91q24.74,17.58,49.46,35L166.8,232l22.73,15.81q-6.78,22.89-13.3,45.84L169.38,318,156.91,361.7v.2L380.06,169.29ZM474.65,20.73C452.27,3.12,400.29-6.69,269.1,51l4.14,13.15S411.52-4.19,459.53,24.64C535,70,395.64,182,310.74,244.76l.76,3c4.63,17.74,9.56,35.36,14.35,53l10.95,38.73-33.45-22.37c-15.33-10-30.53-20.18-46-30l-2.58-1.64-2.26,1.72-24.11,18.36-24,18.55-23.83,18.73c-7.93,6.28-15.94,12.72-23.78,19.12,8.51-5.47,17.11-11.1,25.52-16.71l25.2-16.86,25-17.1L255,295.73c14.13,10.09,28.44,19.94,42.66,29.89l45.34,31,12.49,8.56-4.26-14.54L335.76,298c-5.08-16.6-10-33.26-15.24-49.81-.06,0,236.3-162.61,154.13-227.45Z"/></svg>